<svg fill="none" height="360" viewBox="0 0 360 360" width="360" xmlns="http://www.w3.org/2000/svg"><path d="m179.787 56.0164c.789-.0675 3.033.0905 3.884.1563 8.494.6556 16.315 5.246 22.282 11.1328 2.214 2.183 4 4.9846 6.806 6.4585 1.435.7539 2.629 1.3391 4.337 1.7252 1.655.374 4.86-.0313 6.295.5454.488.1961 1.093 2.2255 1.351 2.7997 1.411 3.1431 3.098 5.41 6.146 7.0997 2.333 1.2933 3.406 1.5764 5.881 2.1486 1.883.4355 5.833-.1172 6.793.498.391 1.5223.205 9.9425.205 12.1994.057 9.346.04 18.692-.05 28.037-.024 2.511.174 7.684-.088 9.949 4.195 3.605 8.61 7.02 12.825 10.604 3.831 3.257 8.676 6.06 9.242 11.598.403 3.969.203 8.103.198 12.105l-.009 21.833.042 71.655c.02 3.97-.421 6.543-3.341 9.453-1.412 1.422-3.244 2.35-5.226 2.647-2.677.421-7.962.271-10.764.213-3.173-.066-6.349-.082-9.524-.046l-55.63-.002-60.294-.02c-5.165-.02-10.328.092-15.498.094-3.36 0-6.0212-.584-8.4308-3.07-1.4487-1.541-2.8774-3.976-3.024-6.147-.2906-4.307-.1718-8.893-.1679-13.213l.0289-25.576-.04-46.484c.006-7.225-.0179-14.451.0349-21.675.0504-6.878 5.3709-9.759 9.9629-13.746 3.944-3.423 8.416-6.672 12.214-10.204.149-11.734-.064-23.855-.03-35.644l.027-8.5853c-.006-1.6577-.096-4.1166.055-5.6898.255-.3144.567-.5775.982-.5798 2.632.0604 4.942.0908 7.45-.5506 6.367-1.6282 9.866-5.4439 11.778-11.6114.198-.638 4.063-.2862 4.863-.3908 1.137-.1486 2.469-.4116 3.582-.8878 4.003-1.2623 5.517-3.5301 8.179-6.4462 4.592-5.0287 10.887-9.1616 17.422-11.1044 2.879-.8556 6.248-1.116 9.251-1.2785zm-60.628 35.6945c.008.125.015.2498.023.3748.153 12.1873.009 24.5183.067 36.6933l.045 36.45-.05 9.037c.007 2.042.096 4.395-.042 6.401 3.907 3.072 7.937 6.552 11.762 9.751 6.715 5.52 13.353 11.134 19.912 16.841 3.918 3.37 9.867 7.786 13.346 11.389 2.394-2.453 6.832-4.9 10.157-5.831 1.045-.293 3.196-.642 4.029-1.014-.786-.259-2.984.073-3.823.256-4.128.897-6.731 2.959-10.055 5.298-2.304-1.646-4.752-3.865-6.981-5.691-5.99-4.939-11.933-9.937-17.828-14.988.126-1.523-.098-3.42-.076-5.052l.216-.111c.854.51 1.83 1.406 2.618 2.051 2.501 2.05 4.622 4.032 7.594 5.399-.988-1.024-2.813-2.37-3.964-3.306-1.913-1.57-3.8-3.171-5.661-4.803-2.51-2.202-4.896-4.788-5.224-8.276-.656-6.987-.774-14.051-1.088-21.064-.124-3.203.26-6.389-.106-9.581-.541-4.734-.592-11.955 2.715-15.722.393-.15 1.519-.857 1.907-1.123 1.722-1.18 4.082-1.548 6.161-1.094 4.641 1.014 6.904 4.252 8.761 8.376.398.885.942 2.636 1.39 3.312l.052-.342c-1.301-4.501-2.216-8.157-6.46-10.925-3.333-2.173-9.663-1.844-11.811 1.796l-.311-.233c-.049-2.904 6.448-8.515 8.606-10.302 3.363-2.782 3.442-3.504 6.29.222 2.125 2.782 3.365 5.529 5.077 8.532.661 1.161 2.07.187 2.97.666.541.873-.483 2.44-.921 3.35 5.543 7.696 10.506 14.77 14.347 23.55.63 1.441 1.22 3.679 2.175 4.939-2.964-10.631-8.889-19.368-15.032-28.213-.38-.547 1.024-4.35 1.374-5.043-1.239.245-2.721.287-3.982.213l-.143-.207c-1.164-1.709-2.021-3.573-3.118-5.319-1.47-2.338-3.297-4.437-5.146-6.481.947-1.949 1.527-3.129 3.043-4.67 1.426 1.477 2.584 3.322 3.91 4.902 7.096 8.447 11.457 16.919 15.561 27.103.594 1.442 1.141 2.902 1.642 4.379.285.863 1.421 4.835 1.723 5.294l.194-.073c-.028-.75-.421-2.203-.585-3.049-.349-1.792-.647-3.594-.893-5.403-.124-.859-.263-1.49-.13-2.35l.182-.106c.432.481.551 1.082.754 1.715 1.812 5.64 2.817 16.338 1.613 22.18-1.015-.39-2.126-.79-3.113-1.23-2.251 5.106-3.175 4.904-1.355 10.489-.874-.908-3.274-3.004-4.413-3.416l-.343.039c-1.388 2.324 5.561 3.5 5.38 4.578-.515 3.084.977 2.476 2.991 3.968.369-.722 1.536-2.564 1.565-3.11l-.078-.193c-.832-.874-1.73-2.215-3.088-1.893.012.667.162.625.725 1.198.552.491 1.046.822 1.298 1.497l-.075.308c-.822.104-1.459-.71-1.923-1.333-.47-1.072-1.329-1.545-1.555-2.967-.343-2.158-.387-6.293 2.368-6.89.749-.162 1.424.433 1.995.904.693 1.306 1.122 2.38 1.732 3.679.222-.201.488-.376.401-.74-1.044-4.365-.794-5.557 1.911-9.055 4.347 4.509.356 9.329 1.227 10.723l.157.023c1.036-2.01 2.709-3.691 3.957-.675.213.554.287 1.552.316 2.163.125 2.493-.519 3.62-2.105 5.406l.623 1.544c.69-.526 1.425-1.036 1.894-1.774 1.604-2.529 2.356-6.373 1.331-9.194-.029-.03-.058-.059-.088-.088-2.231-3.41-4.461-7.972-2.909-12.06.713-1.88 2.059-3.602 3.426-4.702 1.858-2.341 4.207-3.712 6.196-6.73.247-.746 1.481-2.613 1.96-3.362.574-.82 1.594-1.945 2.269-2.721-.359-1.553-.518-3.158-.843-4.727-.41-1.981-1.059-3.555-1.862-5.38-2.213.018-5.178.475-7.105-.708-.908-1.605.243-5.329-.625-6.661-.138-.786-.02-1.135.124-1.915-.589-.7-1.185-1.347-1.805-2.02 1.8-2.632 3.509-2.687 3.726-6.55.15-2.657 1.048-4.784 2.568-6.957.881-4.566 4.102-3.976 7.779-4.266.787-.062 1.935-.592 2.701-.709 7.897-1.204 15.966 3.955 16.107 12.395.011.623.057 1.804.268 2.371.913.002 1.452.167 1.577 1.231l-.18.241c-.705-.238-.805-.65-1.221-1.356-.644.845-1.598 2.245-2.544 2.692-1.19-.051-1.244-1.44-1.484-2.445l-.216-.239c-.659.037-.861.347-1.202.879.342.759 1.174 2.241 1.279 2.884l-.16.113c-.487-.45-1.29-1.505-1.74-2.065-.75-.497-.565-.545-1.297-.518-.478.289-.309.091-.507.632.097.64-.004.67.462 1.12.604.335 1.052.505 1.445 1.064l-.057.223c-.618.161-1.006-.215-1.622-.411-.725.314-.964.829-.705 1.571.771.422 1.225-.403 1.783-.161-.012 1.08-.897 1.347-.297 2.163.348.034.624.066.974.12.482 1.327-1.387 3.663-1.369 5.241.014 1.155.124 1.571.4 2.654 1.148-1.324 2.607-3.107 1.604-4.857.135-.832 1.009-3.117 1.673-3.581.142.659-.348.961-.12 1.76.794.398 1.735-.853 1.865-1.608-.925-.935-1.202-1.489-1.714-2.639 1.569-1.227 2.409-2.011 4.451-2.098 3.16-.298 4.946 2.566 5.273 5.475.392 3.495-2.325 3.206-1.971 5.851.307 2.287-.094 3.881-1.632 5.695-3.798 3.729-8.745 2.542-12.324-.302 2.404 5.077 5.947 9.178 7.031 14.732.348 1.784.482 3.859.613 5.685.532.516.975.866 1.199 1.591.413 1.553-.68 8.071-1.103 9.898-.373.376-.752.746-1.138 1.108.031 2.618.617 5.392.775 8.056.127 2.144-.027 4.343.15 6.455.062.733.854 2.265 1.197 2.971.906 1.775 1.543 3.433 2.212 5.292.115.561-.027.365.314.689.448-.115 17.432-14.589 19.377-16.275l-.041-62.345-.045-17.341c-.011-2.2612-.154-7.3007.135-9.3636-8.904-.1023-16.521-3.6926-19.438-12.6346-.668-.0014-1.336-.0139-2.004-.0376-4.096-.178-8.269-1.6547-11.282-4.5034-1.288-1.2054-2.402-2.6821-3.601-3.9647-14.669-15.6791-36.635-14.5275-50.226 1.886-1.685 2.0352-3.541 3.6972-5.992 4.8099-3.005 1.3635-5.981 1.9369-9.288 1.8153-.568 2.6192-1.775 4.3052-3.505 6.2736-4.3 4.8908-9.942 6.2409-16.26 6.517zm80.119 32.7221c-2.468-2.902-4.526-5.4-5.224-9.318-.168-.947-.296-3.016-.649-3.763-.651 1.347-1.473 3.117-1.809 4.554-1.078 4.6-.385 5.737-4.088 8.896 2.123 1.467 1.277 1.426 1.481 3.56 1.185 1.68-.324 4.584.776 6.302 1.169.616 3.987.397 5.308.269 2.521-.244 2.721 1.719 3.333 3.649.598 1.989.664 4.301.889 6.37.073.721.342.689.993.757l.066.25c-.317.53-2.615 3.028-2.973 3.233-.827 1.294-1.672 2.577-2.536 3.846-.839 1.499-2.749 4.123-4.21 5.004-.037.267-.05.124.075.423.757-.027 1.233-.519 1.928-.679 6.48-1.495 12.855 1.271 19.012 2.917 1.422.381 3.261.577 4.734.789.041-3.491-.467-7.796-2.121-10.899-2.655-4.984-5.211-7.567-5.922-13.506-2.224-1.001-3.516-2.731-3.56-5.123-.007-.43-.108-1.322-.279-1.684l-.383-.036c-.537.413-1.66.721-2.279.369.625-.648 1.628-.652 2.656-1.582 2.179-2.88-1.051-3.162-3.113-3.549-.565.56-1.259 1.233-1.877 1.733-.806.653-.827 1.074-1.383 1.87l-.227-.005c-.324-.995.889-3.71 1.382-4.647zm44.422 53.525c3.064-2.248 7.12-5.777 10.085-8.256 1.472-1.234 2.954-2.457 4.447-3.666 1.218-.968 3.425-2.541 4.335-3.697-.249-1.531-.479-3.113-1.387-4.418-.94-1.352-15.675-13.683-17.295-14.586-.068-.037-.143-.059-.215-.088.232 1.48.098 5.169.083 6.796l-.054 11.746c.015 3.349.049 6.699.105 10.048.017 1.774.081 4.439-.104 6.121zm-62.862 26.935c1.293-.028 1.95-.011 3.229-.291.844-.185 2.986-1.139 3.459-1.082l-.02.202c-2.025 1.518-4.016 1.561-6.255 2.338 1.315 1.223 1.359 4.216 1.584 6.074 4.966.426 9.769 3.249 13.468 6.43.913-1.111 4.674-4.215 5.997-5.351l12.98-11.044c1.526-1.298 3.349-2.802 4.812-4.214.336-.323.206-.547.138-.978-.75-1.649-1.257-3.381-2.114-5.194-2.342-4.912-5.74-8.761-5.915-14.47-.055-1.805-.181-3.044.292-4.813-.771-.312-1.276-.593-2.002-.989-2.292-1.157-4.813-2.636-6.385-4.706.87.34 5.79 3.333 6.946 3.988 1.193.407 4.412 1.751 5.483 1.178 1.139-3.433.847-6.083 1.656-8.923-3.253.141-7.02-1.106-10.132-2.064-6.269-1.932-10.231-3.515-16.76-1.604-4.426 1.337-6.65 5.517-5.23 9.912.676 2.094 1.593 3.94 2.527 5.924.519 1.351.676 3.764.963 4.13l.091.027c.593-1.318 1.231-2.024 2.518-2.675.895-.559 4.692-1.9 5.642-1.531.232.689-.097 1.486-.452 2.109-1.684 2.965-2.61 6.085-6.434 6.545-1.137.184-2.74.329-3.347 1.472l.15.194c1.086.055 2.67.054 3.717-.176 1.92-.422 4.578-2.544 5.601.618-.081.408-7.276 5.902-8.286 6.418-1.401.717-5.662-.648-6.756.198 1.159.664 2.988 1.014 4.381 1.656.965.332.856.416 1.662.114l.157-.208c.772-1.011.855-.812 1.94-1.048 2.678-.581 4.936 1.517 6.634 1.671.82-.136 1.718-.338 2.535-.24l.033.188c-.586.394-.695.417-1.375.656-2.053.489-4.013 1.623-6.002 2.087l-.151.171.118.268c2.571.152 3.742.954 5.431 2.826l-1.464.888c-1.547-.934-3.004-2.01-4.354-3.213-.494-.484-.335-.472-.912-.6-.467.578-.199 1.423-.259 2.161-.007.736.116 2.544-.377 3.014-.382-.051-.23.034-.476-.257l-.019-.154c-.182-1.619.134-2.873-.656-4.355-2.243-4.206-9.758-5.557-12.893-1.725-2.049 2.504-.535 5.611 1.75 7.3.958.715 1.975.909 3.132 1.148zm-74.425-34.916c3.245 2.873 6.691 5.404 9.963 8.152-.341-2.454-.182-8.054-.175-10.7l-.047-18.738c-.006-.675.058-4.865-.057-5.22l-.164-.048c-3.474 3.229-7.557 6.129-11.17 9.237-2.876 2.474-6.8833 4.831-7.3254 9.006-.0595.658.2527 1.136.7263 1.546 2.6571 2.298 5.5081 4.573 8.2491 6.765zm-4.441 105.644c4.974.231 10.739.112 15.766.126l29.414.034 87.996-.045c7.557.071 15.116.006 22.671-.191-2.672-2.094-5.503-4.637-8.119-6.857l-16.191-13.751-21.882-18.443c-3.072-2.605-5.972-4.909-9.029-7.616 2.04 6.719 1.478 13.213-1.822 19.388-2.969 5.657-8.126 9.852-14.268 11.608-5.631 1.654-12.356.811-17.412-2.052-9.171-5.194-13.523-15.48-11.971-25.74.104-.689.857-2.78.78-3.065l-.183-.056c-3.809 3.356-8.326 6.876-12.26 10.172l-23.533 19.823c-4.256 3.641-8.53 7.26-12.823 10.857-1.84 1.558-5.281 4.629-7.134 5.808zm75.069-83.431c-.121-1.541-3.687-6.668-5.533-6.187-1.34.424-4.167.989-5.448.512-1.492-.555-1.693-1.13-2.369-2.411.633.277 1.692.759 2.327.891 1.928.399 2.804-.133 4.762.521-.108-.978-.486-1.96-.677-3.006-2.387-2.569-7.56-3.109-10.905-3.062 1.856 2.98 5.782 9.626 9.775 9.184 1.333-.274 3.799.026 4.98.834.935.639 2.339 2.351 3.088 2.724zm4.708-9.861c.411.494.673.924 1.256 1.155 1.74.079 2.325-2.847 1.778-3.835-1.106.971-1.163 1.796-2.091 2.704-.624-.849.875-2.723 1.637-3.265.753-.278.783-.224 1.06-.821-.989-1.228-1.778-.729-2.802.159-1.29 1.244-.952 2.208-.838 3.903zm-5.475 11.322c.63-.068.403.068.795-.265l-.163-.314c-1.756-1.256-6.68-3.656-8.902-3.693-2.704 1.045-4.105 3.121-6.199 4.859 2.76-.707 3.97-.234 6.701-.268 1.373-.017 3.363-1.242 4.886-1.112.68.057 2.36.336 2.882.793zm-24.254-16.167c-2.196.118-3.392.35-5.229 1.671 5.507-.978 4.086-1.345 8.177 2.961l6.094 6.416c1.348 1.35 1.963 2.037 3.572 3.062-1.673-3.099-10.591-10.737-11.082-13.533-.562-3.202 3.763-28.322 1.991-29.709-.459 1.756-.553 4.484-.86 6.377-1.242 7.645-2.125 15.032-2.663 22.755zm27.561 15.397c-.145-2.671-.29-5.987-.284-8.644-1.524-.091-2.809 1.66-2.961 3.053-.165 1.515.938 3.039 1.754 4.252zm3.53-1.833c1.406.159 2.802.359 4.213.307 1.526-.296 4.146-1.506 4.226-3.241-.453-1.18-2.424-1.27-3.512-1.169-2.805.795-3.339 1.824-4.927 4.103zm-3.235-20.992c-.964 1.486-1.478 5.179-.009 6.37l.584.08c.327-1.199.586-1.854 1.067-3.01-.251-1.19-.487-2.81-1.642-3.44zm15.591 6.882c-1.613.353-2.456.516-3.894 1.311-.555.612-.841.897-1.267 1.626-.332.805-.787 1.55-.504 2.335.555.421 1.084.335 1.802.337.233-.239 1.458-.696 1.791-1.029.998-.997 1.607-3.232 2.072-4.58zm-16.446 6.22c.424-.193 1.081-.412 1.309-.777.098-1.094.41-3.686.254-4.605l-.225-.127-.923.761c-1.225 1.011-1.297 3.592-.415 4.748zm-9.688-5.946c.439-5.292-.477-6.174-4.181-9.761-.57-.552-1.4-1.823-2.155-2.032.612 3.713.28 8.313 3.653 10.743.65.469 1.541 1.007 2.331 1.14zm.34 17.661c-1.736 1.327-2.179 2.685-2.955 4.69.923-.211 1.627-.352 2.562-.49 1.541-.443 6.161-2.432 6.108-4.261-.563-.572-1.969-.396-2.715-.238-1.025.124-2.012.074-3 .299zm7.344-12.454c.335.011.174.048.469-.197.252-1.152-.466-3.782-.745-5.028-.196-.811-.76-1.975-1.132-2.739-.661-.2-.442-.236-1.006-.043-.976.996-2.192 4.017-1.522 5.337.827.37 1.591-.566 2.667-.545 1.011.544.641 1.979 1.269 3.215zm13.189 14.208c.823-.22 3.263-.726 3.651-1.318-.171-.151-.086-.137-.22-.135-.93.197-2.776.525-3.58.929l-.097.276zm-10.303-12.563c1.022 2.625.229 7.316.604 8.219l.328-.033c1.364-1.252 2.731-3.75 2.554-5.649-.17-1.801-1.762-2.806-3.486-2.537zm36.989-57.999c.478.64.877 1.226 1.458 1.776.47.35.708.579 1.264.545l.102-.278c-.435-1.222-.817-1.463-1.762-2.342 1.023.051 2.221.311 2.976-.428.117-.525.119-.496-.083-.995-1.913.284-2.501.336-3.955 1.722zm-36.941 89.372c-11.596.196-20.835 9.762-20.627 21.359.208 11.595 9.784 20.824 21.38 20.603 11.578-.218 20.79-9.777 20.582-21.357-.208-11.579-9.756-20.801-21.335-20.605zm82.616-48.87c-1.502 1.451-3.407 2.944-5.036 4.307l-9.187 7.688-27.18 23.002-14.741 12.492c-1.86 1.607-6.277 5.704-8.148 6.904l15.016 12.663c4.355 3.737 9.445 8.218 13.939 11.75 8.025 6.896 16.09 13.749 24.188 20.558 3.022 2.536 6.31 5.145 9.271 7.711 2.828-4.671 2.1-7.101 2.099-12.395l-.011-13.565-.016-41.924.002-29.824c-.002-1.201.099-8.622-.196-9.367zm-165.4966.085c.3274 1.646.1519 5.91.1222 7.8-.0407 3.12-.0554 6.24-.044 9.36l.0939 61.604c.0086 5.043-.008 10.083-.0503 15.126-.0289 4.923-.8589 9.11 2.3498 13.152 1.101-1.269 3.801-3.388 5.162-4.519l7.352-6.22 14.66-12.444c2.014-1.698 4.525-3.957 6.568-5.518l20.386-16.91c2.167-1.826 6.568-5.275 8.336-7.12-5.373-4.663-63.4072-53.907-64.9356-54.311z" fill="#343c1e"/><path d="m168.969 88.0625c7.267-2.6047 13.431 2.6905 18.425 7.2705 1.14 1.0464 3.839 1.3566 4.594 2.9805 1.367 2.9405.904 6.9475-3.392 5.9865-.308 1.897-.86 5.497-1.596 7.137-.221-.446.186-1.508.258-2.492-.334.723-.197 1.282-.818 2.204l-.2-.173c.883-2.239.638-4.222 1.724-6.678-5.464-1.061-6.718-2.938-10.83-6.2492.931 1.7974 2.08 2.6662 3.587 4.0132-.986 4.31-2.561 3.717-5.821 5.549-.991.558-2.008 2.95-3.638 2.596-.795-.729-.061-4.917-2.352-5.649-.798.024-1.103.428-1.663.95-1.306 1.215-1.143 2.984-1.13 4.68.255 1.181.279 1.286.978 2.313l-.007.299c-.461.109-.237.126-.689-.085-.644-.804-.665-1.674-1.162-1.973l-.321.219c-.931 1.62-5.874 4.196-7.449 2.473-.107-1.036.479-3.553.45-4.759-.127-5.187-.638-10.5928 2.417-15.1467 1.633-2.4336 3.083-3.7139 6.024-4.3115 1.584.6117 4.249 2.6262 6.005 3.6484.647.2091 1.62.6033 2.254.501-.325-.363-1.208-.6111-1.709-.7949-1.039-.5973-4.463-2.5828-4.994-3.4795.15-.4447.637-.8792 1.055-1.0293z" fill="#343c1e"/><path d="m168.969 88.0625c7.267-2.6047 13.431 2.6905 18.425 7.2705 1.14 1.0464 3.839 1.3566 4.594 2.9805 1.367 2.9405.904 6.9475-3.392 5.9865-.308 1.897-.86 5.497-1.596 7.137-.221-.446.186-1.508.258-2.492-.334.723-.197 1.282-.818 2.204l-.2-.173c.883-2.239.638-4.222 1.724-6.678-5.464-1.061-6.718-2.938-10.83-6.2492.931 1.7974 2.08 2.6662 3.587 4.0132-.986 4.31-2.561 3.717-5.821 5.549-.991.558-2.008 2.95-3.638 2.596-.795-.729-.061-4.917-2.352-5.649-.798.024-1.103.428-1.663.95-1.306 1.215-1.143 2.984-1.13 4.68.255 1.181.279 1.286.978 2.313l-.007.299c-.461.109-.237.126-.689-.085-.644-.804-.665-1.674-1.162-1.973l-.321.219c-.931 1.62-5.874 4.196-7.449 2.473-.107-1.036.479-3.553.45-4.759-.127-5.187-.638-10.5928 2.417-15.1467 1.633-2.4336 3.083-3.7139 6.024-4.3115 1.584.6117 4.249 2.6262 6.005 3.6484.647.2091 1.62.6033 2.254.501-.325-.363-1.208-.6111-1.709-.7949-1.039-.5973-4.463-2.5828-4.994-3.4795.15-.4447.637-.8792 1.055-1.0293z" stroke="#000"/><path d="m165.792 110.093.325.095c.255 1.18.279 1.285.978 2.312l-.007.299c-.461.109-.237.126-.689-.085-.644-.804-.665-1.674-1.162-1.973l-.321.22.054-.381c.401-.344.421-.642.834-1.123z" fill="#343c1e"/><path d="m165.792 110.093.325.095c.255 1.18.279 1.285.978 2.312l-.007.299c-.461.109-.237.126-.689-.085-.644-.804-.665-1.674-1.162-1.973l-.321.22.054-.381c.401-.344.421-.642.834-1.123z" stroke="#000"/><path d="m168.146 128.432c.511.412.462.946.837 1.633.73-.148 1.328-1.716 2.625-.915.976 1.534.475 4.303-.571 5.726l-.075.099c4.181 5.376 7.185 13.786 8.143 20.532.254 1.786.417 10.932-.749 11.827l-.254-.041c-.588-3.304-.515-6.683-1.083-10.064-1.21-7.201-4.784-13.584-7.018-20.477-.356-1.1-.798-2.185-1.343-3.196-.465.997-.666 1.643-1.646 2.183-.27.015-.715.063-.914-.234-.964-1.442-1.362-5.368-.118-6.719.289-.313.899-.193 1.307-.122z" fill="#343c1e"/><path d="m168.146 128.432c.511.412.462.946.837 1.633.73-.148 1.328-1.716 2.625-.915.976 1.534.475 4.303-.571 5.726l-.075.099c4.181 5.376 7.185 13.786 8.143 20.532.254 1.786.417 10.932-.749 11.827l-.254-.041c-.588-3.304-.515-6.683-1.083-10.064-1.21-7.201-4.784-13.584-7.018-20.477-.356-1.1-.798-2.185-1.343-3.196-.465.997-.666 1.643-1.646 2.183-.27.015-.715.063-.914-.234-.964-1.442-1.362-5.368-.118-6.719.289-.313.899-.193 1.307-.122z" stroke="#000"/><path d="m187.258 108.943c-.073.984-.479 2.046-.259 2.492-.592 1.374-1.211 1.748-2.381 2.636.113 2.072.275 4.483.148 6.552-.618.316-1.036.632-1.7.555-.487-.25-.513-.295-.903-.695l-.101-.647c.345.311.363.388.824.463 1.482-.463.731-5.242.556-6.574 1.061-.971 1.988-1.575 2.797-2.75l.2.173c.621-.922.484-1.482.819-2.205z" fill="#343c1e"/><path d="m187.258 108.943c-.073.984-.479 2.046-.259 2.492-.592 1.374-1.211 1.748-2.381 2.636.113 2.072.275 4.483.148 6.552-.618.316-1.036.632-1.7.555-.487-.25-.513-.295-.903-.695l-.101-.647c.345.311.363.388.824.463 1.482-.463.731-5.242.556-6.574 1.061-.971 1.988-1.575 2.797-2.75l.2.173c.621-.922.484-1.482.819-2.205z" stroke="#000"/><path d="m153.366 115.586c.572.173 1.804.551 2.27.857 3.854 2.53 7.495 6.59 10.939 9.735-.283.346-.437.342-.87.456-3.308-3.023-6.251-6.394-9.868-9.125-.852-.644-1.67-1.214-2.471-1.923z" fill="#343c1e"/><path d="m153.366 115.586c.572.173 1.804.551 2.27.857 3.854 2.53 7.495 6.59 10.939 9.735-.283.346-.437.342-.87.456-3.308-3.023-6.251-6.394-9.868-9.125-.852-.644-1.67-1.214-2.471-1.923z" stroke="#000"/><path d="m182.164 120.482c-1.19 2.07-1.686 1.655-2.834 3.106.025.357.076.356.298.652-.3.347-.327.186-.638.351-1.671.883-1.104 2.286-2.99 3.594-.451-.188-1.778-.709-2.142-.914l.648-.687c.758.212.953.452 1.62.327.276-.485.556-.967.842-1.445.718-1.197 3.904-5.33 5.094-5.63z" fill="#343c1e"/><path d="m182.164 120.482c-1.19 2.07-1.686 1.655-2.834 3.106.025.357.076.356.298.652-.3.347-.327.186-.638.351-1.671.883-1.104 2.286-2.99 3.594-.451-.188-1.778-.709-2.142-.914l.648-.687c.758.212.953.452 1.62.327.276-.485.556-.967.842-1.445.718-1.197 3.904-5.33 5.094-5.63z" stroke="#000"/><path d="m167.235 120.396c1.649 1.287 2.593 3.15 4.303 4.38.954.687 1.907 1.293 2.968 1.809l-.648.686c-1.387-.697-2.554-1.557-3.785-2.484-.53.453-.831.897-1.254 1.446l-.664-.392c.559-.713.824-1.05 1.484-1.681-1.225-1.48-1.586-2.034-2.404-3.764z" fill="#343c1e"/><path d="m167.235 120.396c1.649 1.287 2.593 3.15 4.303 4.38.954.687 1.907 1.293 2.968 1.809l-.648.686c-1.387-.697-2.554-1.557-3.785-2.484-.53.453-.831.897-1.254 1.446l-.664-.392c.559-.713.824-1.05 1.484-1.681-1.225-1.48-1.586-2.034-2.404-3.764z" stroke="#000"/><path d="m168.819 126.233c-.59.921-.852 1.114-.672 2.198l-.859.232c.018-.684-1.096-1.57-1.583-2.03.433-.114.586-.11.869-.456.358.205.737.672 1.03.994.18-.445.364-.889.551-1.331z" fill="#343c1e"/><path d="m168.819 126.233c-.59.921-.852 1.114-.672 2.198l-.859.232c.018-.684-1.096-1.57-1.583-2.03.433-.114.586-.11.869-.456.358.205.737.672 1.03.994.18-.445.364-.889.551-1.331z" stroke="#000"/><path d="m172.907 92.5703c.502.1838 1.385.4318 1.71.7949-.633.1025-1.606-.2908-2.254-.5z" fill="#343c1e" fill-opacity=".109804"/><path d="m172.907 92.5703c.502.1838 1.385.4318 1.71.7949-.633.1025-1.606-.2908-2.254-.5z" stroke="#000"/><path d="m205.969 174.824c.168.124.342.244.371.48.386 3.089 1.314 6.068 1.743 9.138.053.384-.069.711-.261 1.035-.273-.145-.182-.083-.395-.311.108-3.031-1.751-8.004-1.458-10.342z" fill="#343c1e"/><path d="m205.969 174.824c.168.124.342.244.371.48.386 3.089 1.314 6.068 1.743 9.138.053.384-.069.711-.261 1.035-.273-.145-.182-.083-.395-.311.108-3.031-1.751-8.004-1.458-10.342z" stroke="#000"/><path d="m194.974 171.33.109.247c-.481 1.407-3.014 3.179-4.239 4.141-.191-.014-.185-.036-.371-.114.154-.627 3.45-3.571 4.201-4.284z" fill="#343c1e"/><path d="m194.974 171.33.109.247c-.481 1.407-3.014 3.179-4.239 4.141-.191-.014-.185-.036-.371-.114.154-.627 3.45-3.571 4.201-4.284z" stroke="#000"/><path d="m180.26 230.176c3.324-6.528 12.143-3.673 12.023 3.209-.078 4.486-3.189 7.978-6.159 10.997-1.654 1.495-4.123 3.643-5.872 4.962-2.451-1.398-8.242-6.966-10.005-9.371-.773-1.036-1.384-2.182-1.81-3.403-1.399-4.1-.484-8.508 4.074-9.981 3.558-.393 5.677.755 7.749 3.587z" fill="#343c1e"/><path d="m180.26 230.176c3.324-6.528 12.143-3.673 12.023 3.209-.078 4.486-3.189 7.978-6.159 10.997-1.654 1.495-4.123 3.643-5.872 4.962-2.451-1.398-8.242-6.966-10.005-9.371-.773-1.036-1.384-2.182-1.81-3.403-1.399-4.1-.484-8.508 4.074-9.981 3.558-.393 5.677.755 7.749 3.587z" stroke="#000"/><path d="m176.031 216.431c18.163-3.851 30.125 16.319 20.546 31.209-.156.241-.308.465-.513.667l-.381-.284c.361-.374.594-.873.866-1.32 2.723-4.456 3.518-11.023 2.131-16.095-1.364-5.083-4.725-9.402-9.32-11.969-4.096-2.327-9.145-2.841-13.669-1.565z" fill="#343c1e"/><path d="m176.031 216.431c18.163-3.851 30.125 16.319 20.546 31.209-.156.241-.308.465-.513.667l-.381-.284c.361-.374.594-.873.866-1.32 2.723-4.456 3.518-11.023 2.131-16.095-1.364-5.083-4.725-9.402-9.32-11.969-4.096-2.327-9.145-2.841-13.669-1.565z" stroke="#000"/><path d="m175.691 217.074c-5.756 1.136-13.107 7.855-13.753 13.822l-.485-.306c.433-1.8 1.146-3.522 2.113-5.102 2.708-4.458 7.41-7.819 12.465-9.058z" fill="#343c1e"/><path d="m175.691 217.074c-5.756 1.136-13.107 7.855-13.753 13.822l-.485-.306c.433-1.8 1.146-3.522 2.113-5.102 2.708-4.458 7.41-7.819 12.465-9.058z" stroke="#000"/><path d="m196.063 248.307c-.029.046-.056.091-.084.137-2.653 4.029-6.777 6.861-11.49 7.89-.644.14-3.202.768-3.62.5.449-.567 5.214-1.333 6.546-1.948 3.433-1.586 6.145-3.736 8.269-6.863z" fill="#343c1e"/><path d="m196.063 248.307c-.029.046-.056.091-.084.137-2.653 4.029-6.777 6.861-11.49 7.89-.644.14-3.202.768-3.62.5.449-.567 5.214-1.333 6.546-1.948 3.433-1.586 6.145-3.736 8.269-6.863z" stroke="#000"/><path d="m161.939 230.896c-1.205 3.386-.403 9.272.554 12.713-.433-.508-.176-.364-.743-.538-1.132-2.735-1.278-9.668-.297-12.479z" fill="#343c1e" fill-opacity=".568627"/><path d="m161.939 230.896c-1.205 3.386-.403 9.272.554 12.713-.433-.508-.176-.364-.743-.538-1.132-2.735-1.278-9.668-.297-12.479z" stroke="#000"/><path d="m169.393 252.965c2.018 1.268 2.582 1.477 4.766 2.372 1.257.516 5.258 1.163 5.618 1.566-.537.347-1.648-.024-2.272-.133-2.549-.447-6.744-1.857-8.699-3.634z" fill="#343c1e"/><path d="m169.393 252.965c2.018 1.268 2.582 1.477 4.766 2.372 1.257.516 5.258 1.163 5.618 1.566-.537.347-1.648-.024-2.272-.133-2.549-.447-6.744-1.857-8.699-3.634z" stroke="#000"/><path d="m161.75 243.07c.567.174.309.03.742.538 1.145 2.859 3.089 6.418 5.63 8.269l-.464.304c-2.19-1.317-5.259-6.601-5.908-9.111z" fill="#343c1e"/><path d="m161.75 243.07c.567.174.309.03.742.538 1.145 2.859 3.089 6.418 5.63 8.269l-.464.304c-2.19-1.317-5.259-6.601-5.908-9.111z" stroke="#000"/><path d="m169.394 252.963-.587.172-1.149-.954.464-.304z" fill="#343c1e" fill-opacity=".988235"/><path d="m169.394 252.963-.587.172-1.149-.954.464-.304z" stroke="#000"/><path d="m203.281 106.303c7.896-1.204 15.964 3.954 16.106 12.394.011.623.058 1.804.269 2.371.912.003 1.451.167 1.576 1.231l-.18.242c-.704-.238-.804-.651-1.22-1.356-.645.844-1.599 2.245-2.545 2.692-1.19-.051-1.243-1.441-1.484-2.445l-.216-.24c-.659.038-.861.347-1.202.879-.256.349-.425.545-.621.933-.75-.497-.566-.546-1.298-.519-.477.289-.308.091-.507.632.097.64-.002.67.463 1.12-.371.557-.319.27-.234.876-.724.314-.963.83-.704 1.572.77.421 1.225-.403 1.782-.162-.012 1.081-.896 1.347-.297 2.163.348.034.624.066.974.121.482 1.326-1.387 3.662-1.368 5.24.014 1.155.123 1.572.399 2.654 1.148-1.324 2.607-3.107 1.604-4.857.135-.832 1.009-3.117 1.673-3.581.142.659-.347.961-.12 1.759.794.399 1.735-.852 1.865-1.607-.925-.935-1.202-1.488-1.713-2.639 1.568-1.227 2.408-2.011 4.45-2.098 3.161-.298 4.947 2.567 5.273 5.475.392 3.495-2.325 3.207-1.97 5.851.306 2.288-.095 3.881-1.633 5.695-3.799 3.729-8.745 2.543-12.323-.302 2.404 5.077 5.946 9.178 7.03 14.732.348 1.784.482 3.86.613 5.685.532.516.976.866 1.199 1.591-.39 1.782-.843 9.036-1.678 10.085l-.188.016c-.276-.519-.079-.386-.521-.535 1.138-3.433.848-6.083 1.657-8.923-3.253.141-7.022-1.105-10.133-2.064-6.269-1.931-10.231-3.514-16.76-1.604l-.153-.073c-.088-.174-.147-.336-.204-.522-.422.014-.447.053-.82-.121.061-.473.419-.875.707-1.278l-.195.656c-.037.267-.048.124.076.423.757-.027 1.233-.518 1.928-.679 6.48-1.495 12.855 1.271 19.012 2.917 1.422.381 3.261.578 4.734.789.042-3.49-.467-7.796-2.121-10.898-2.655-4.984-5.211-7.568-5.922-13.507-2.223-1-3.516-2.731-3.559-5.122-.008-.43-.109-1.323-.28-1.685l-.383-.036c.049-.309.294-.35.378-1.213 2.178-2.88-1.052-3.162-3.114-3.549-.565.56-1.259 1.234-1.877 1.734-.805.652-.827 1.074-1.383 1.869l-.227-.004c-.324-.996.89-3.711 1.383-4.647-2.469-2.902-4.527-5.401-5.225-9.319-.168-.946-.295-3.016-.648-3.762l-.606-.076c.882-4.565 4.102-3.976 7.779-4.265.787-.062 1.936-.593 2.702-.709zm17.566 18.04c-1.912.284-2.502.337-3.955 1.722.478.64.877 1.227 1.458 1.777.47.349.708.579 1.264.545l.101-.279c-.434-1.221-.816-1.463-1.76-2.341 1.023.05 2.22.31 2.975-.428.117-.526.119-.497-.083-.996z" fill="#343c1e"/><path d="m203.281 106.303c7.896-1.204 15.964 3.954 16.106 12.394.011.623.058 1.804.269 2.371.912.003 1.451.167 1.576 1.231l-.18.242c-.704-.238-.804-.651-1.22-1.356-.645.844-1.599 2.245-2.545 2.692-1.19-.051-1.243-1.441-1.484-2.445l-.216-.24c-.659.038-.861.347-1.202.879-.256.349-.425.545-.621.933-.75-.497-.566-.546-1.298-.519-.477.289-.308.091-.507.632.097.64-.002.67.463 1.12-.371.557-.319.27-.234.876-.724.314-.963.83-.704 1.572.77.421 1.225-.403 1.782-.162-.012 1.081-.896 1.347-.297 2.163.348.034.624.066.974.121.482 1.326-1.387 3.662-1.368 5.24.014 1.155.123 1.572.399 2.654 1.148-1.324 2.607-3.107 1.604-4.857.135-.832 1.009-3.117 1.673-3.581.142.659-.347.961-.12 1.759.794.399 1.735-.852 1.865-1.607-.925-.935-1.202-1.488-1.713-2.639 1.568-1.227 2.408-2.011 4.45-2.098 3.161-.298 4.947 2.567 5.273 5.475.392 3.495-2.325 3.207-1.97 5.851.306 2.288-.095 3.881-1.633 5.695-3.799 3.729-8.745 2.543-12.323-.302 2.404 5.077 5.946 9.178 7.03 14.732.348 1.784.482 3.86.613 5.685.532.516.976.866 1.199 1.591-.39 1.782-.843 9.036-1.678 10.085l-.188.016c-.276-.519-.079-.386-.521-.535 1.138-3.433.848-6.083 1.657-8.923-3.253.141-7.022-1.105-10.133-2.064-6.269-1.931-10.231-3.514-16.76-1.604l-.153-.073c-.088-.174-.147-.336-.204-.522-.422.014-.447.053-.82-.121.061-.473.419-.875.707-1.278l-.195.656c-.037.267-.048.124.076.423.757-.027 1.233-.518 1.928-.679 6.48-1.495 12.855 1.271 19.012 2.917 1.422.381 3.261.578 4.734.789.042-3.49-.467-7.796-2.121-10.898-2.655-4.984-5.211-7.568-5.922-13.507-2.223-1-3.516-2.731-3.559-5.122-.008-.43-.109-1.323-.28-1.685l-.383-.036c.049-.309.294-.35.378-1.213 2.178-2.88-1.052-3.162-3.114-3.549-.565.56-1.259 1.234-1.877 1.734-.805.652-.827 1.074-1.383 1.869l-.227-.004c-.324-.996.89-3.711 1.383-4.647-2.469-2.902-4.527-5.401-5.225-9.319-.168-.946-.295-3.016-.648-3.762l-.606-.076c.882-4.565 4.102-3.976 7.779-4.265.787-.062 1.936-.593 2.702-.709zm17.566 18.04c-1.912.284-2.502.337-3.955 1.722.478.64.877 1.227 1.458 1.777.47.349.708.579 1.264.545l.101-.279c-.434-1.221-.816-1.463-1.76-2.341 1.023.05 2.22.31 2.975-.428.117-.526.119-.497-.083-.996z" stroke="#000"/><path d="m217.249 120.764c.997-.356 1.219.473 2.407.303.912.003 1.451.168 1.576 1.232l-.18.241c-.704-.238-.804-.65-1.22-1.355-.645.844-1.598 2.245-2.544 2.692-1.19-.051-1.244-1.442-1.485-2.446.336-.135.475-.148.826-.216.318.347.216.455.27 1.055l.134-.19c.014-.507-.034-.886.216-1.316z" fill="#343c1e"/><path d="m217.249 120.764c.997-.356 1.219.473 2.407.303.912.003 1.451.168 1.576 1.232l-.18.241c-.704-.238-.804-.65-1.22-1.355-.645.844-1.598 2.245-2.544 2.692-1.19-.051-1.244-1.442-1.485-2.446.336-.135.475-.148.826-.216.318.347.216.455.27 1.055l.134-.19c.014-.507-.034-.886.216-1.316z" stroke="#000"/><path d="m221.036 123.86c-.048.334.006.221-.189.483-1.913.284-2.501.337-3.954 1.722.477.64.877 1.227 1.458 1.777l-.355.573c-.925-.935-1.202-1.488-1.714-2.639 1.569-1.227 2.409-2.011 4.45-2.098z" fill="#343c1e"/><path d="m221.036 123.86c-.048.334.006.221-.189.483-1.913.284-2.501.337-3.954 1.722.477.64.877 1.227 1.458 1.777l-.355.573c-.925-.935-1.202-1.488-1.714-2.639 1.569-1.227 2.409-2.011 4.45-2.098z" stroke="#000"/><path d="m218.921 162.404c.413 1.552-.678 8.071-1.102 9.899-.373.376-.753.745-1.138 1.107.031 2.618.617 5.392.776 8.056.126 2.144-.028 4.344.149 6.455.062.734.854 2.265 1.197 2.971-.279.311-.496.514-.687.89-2.343-4.913-5.74-8.761-5.914-14.47-.056-1.806-.182-3.044.291-4.813-.771-.312-1.276-.593-2.002-.989.138-.068.342-.205.48-.292l.08-.427c1.193.407 4.413 1.752 5.484 1.179.442.149.245.016.52.534l.189-.016c.835-1.049 1.288-8.302 1.677-10.084z" fill="#343c1e"/><path d="m218.921 162.404c.413 1.552-.678 8.071-1.102 9.899-.373.376-.753.745-1.138 1.107.031 2.618.617 5.392.776 8.056.126 2.144-.028 4.344.149 6.455.062.734.854 2.265 1.197 2.971-.279.311-.496.514-.687.89-2.343-4.913-5.74-8.761-5.914-14.47-.056-1.806-.182-3.044.291-4.813-.771-.312-1.276-.593-2.002-.989.138-.068.342-.205.48-.292l.08-.427c1.193.407 4.413 1.752 5.484 1.179.442.149.245.016.52.534l.189-.016c.835-1.049 1.288-8.302 1.677-10.084z" stroke="#000"/><path d="m162.908 181.384c.561-.233.51-.114 1.245.054 1.254.154 4.439.74 4.223 2.421-.916.388-2.707-.499-3.46-1.071l-.458.02-.548.139c-.673-.254-1.228-.809-1.002-1.563z" fill="#343c1e"/><path d="m162.908 181.384c.561-.233.51-.114 1.245.054 1.254.154 4.439.74 4.223 2.421-.916.388-2.707-.499-3.46-1.071l-.458.02-.548.139c-.673-.254-1.228-.809-1.002-1.563z" stroke="#000"/><path d="m162.908 181.384c.561-.233.51-.114 1.245.054l.257.437c-.1.356-.132.414-.174.776l.222.157-.548.139c-.673-.254-1.228-.809-1.002-1.563z" fill="#343c1e"/><path d="m162.908 181.384c.561-.233.51-.114 1.245.054l.257.437c-.1.356-.132.414-.174.776l.222.157-.548.139c-.673-.254-1.228-.809-1.002-1.563z" stroke="#000"/><path d="m164.805 169.631c2.299.385 2.919 3.015 2.882 4.976-1.861-.639-2.743-3.167-2.882-4.976z" fill="#343c1e"/><path d="m164.805 169.631c2.299.385 2.919 3.015 2.882 4.976-1.861-.639-2.743-3.167-2.882-4.976z" stroke="#000"/><path d="m168.484 190.644c.709-.02 1.732.254 2.086.909l-.14.391c-.828.797-1.377.695-2.549.766-.682.06-1.454.26-1.922-.296l.103-.392c.811-.941 1.275-1.064 2.422-1.378z" fill="#343c1e"/><path d="m168.484 190.644c.709-.02 1.732.254 2.086.909l-.14.391c-.828.797-1.377.695-2.549.766-.682.06-1.454.26-1.922-.296l.103-.392c.811-.941 1.275-1.064 2.422-1.378z" stroke="#000"/><path d="m190.878 156.822c-.06.253-.068.319-.049.563-.289.403-.646.806-.707 1.279.372.174.397.135.819.121.057.185.117.347.205.521l.153.074c-4.426 1.337-6.649 5.516-5.23 9.912.676 2.094 1.593 3.94 2.527 5.924-.293.14-.657.352-.828.641-.029-.029-.059-.058-.088-.087-2.231-3.41-4.461-7.972-2.909-12.06.713-1.88 2.059-3.602 3.426-4.702.877-.081 1.977-1.464 2.681-2.186z" fill="#343c1e"/><path d="m190.878 156.822c-.06.253-.068.319-.049.563-.289.403-.646.806-.707 1.279.372.174.397.135.819.121.057.185.117.347.205.521l.153.074c-4.426 1.337-6.649 5.516-5.23 9.912.676 2.094 1.593 3.94 2.527 5.924-.293.14-.657.352-.828.641-.029-.029-.059-.058-.088-.087-2.231-3.41-4.461-7.972-2.909-12.06.713-1.88 2.059-3.602 3.426-4.702.877-.081 1.977-1.464 2.681-2.186z" stroke="#000"/><path d="m189.766 134.664c1.168.616 3.987.397 5.307.269 2.521-.244 2.721 1.719 3.333 3.649.598 1.989.664 4.301.889 6.37.072.72.343.689.993.757l.066.25c-.318.53-2.616 3.028-2.973 3.233-.328-.343-.385-.227-1.027-.276.573-.82 1.593-1.945 2.268-2.721-.359-1.553-.518-3.158-.843-4.727-.41-1.981-1.059-3.555-1.862-5.38-2.213.018-5.178.475-7.105-.707.161-.305.199-.349.399-.63z" fill="#343c1e"/><path d="m189.766 134.664c1.168.616 3.987.397 5.307.269 2.521-.244 2.721 1.719 3.333 3.649.598 1.989.664 4.301.889 6.37.072.72.343.689.993.757l.066.25c-.318.53-2.616 3.028-2.973 3.233-.328-.343-.385-.227-1.027-.276.573-.82 1.593-1.945 2.268-2.721-.359-1.553-.518-3.158-.843-4.727-.41-1.981-1.059-3.555-1.862-5.38-2.213.018-5.178.475-7.105-.707.161-.305.199-.349.399-.63z" stroke="#000"/><path d="m187.834 188.031c.572.019.894.046 1.37.328.267.489.236.239.107.774-.564.703-.956.749-1.859.889-.827.004-1.653-.005-2.479-.024 1.027-1.014 1.448-1.592 2.861-1.967z" fill="#343c1e"/><path d="m187.834 188.031c.572.019.894.046 1.37.328.267.489.236.239.107.774-.564.703-.956.749-1.859.889-.827.004-1.653-.005-2.479-.024 1.027-1.014 1.448-1.592 2.861-1.967z" stroke="#000"/><path d="m172.153 195.443c.09-.004.276.042.375.062l-.034.343c-.744 1.109-1.625 1.835-2.914 2.192-.311-.026-.194.002-.475-.163l-.03-.373c.275-.661.585-.946 1.051-1.483z" fill="#343c1e"/><path d="m172.153 195.443c.09-.004.276.042.375.062l-.034.343c-.744 1.109-1.625 1.835-2.914 2.192-.311-.026-.194.002-.475-.163l-.03-.373c.275-.661.585-.946 1.051-1.483z" stroke="#000"/><path d="m174.329 172.854c.749-.162 1.424.432 1.995.903-.239.303-.368.531-.716.697-.66-.2-.441-.236-1.004-.043-.977.996-2.192 4.016-1.523 5.337.827.369 1.591-.566 2.667-.545 1.011.544.641 1.979 1.269 3.215l-.438.515c-.832-.874-1.731-2.215-3.088-1.893.011.667.162.625.725 1.198l-.7.472c-.47-1.072-1.329-1.545-1.555-2.967-.343-2.158-.387-6.293 2.368-6.889z" fill="#343c1e"/><path d="m174.329 172.854c.749-.162 1.424.432 1.995.903-.239.303-.368.531-.716.697-.66-.2-.441-.236-1.004-.043-.977.996-2.192 4.016-1.523 5.337.827.369 1.591-.566 2.667-.545 1.011.544.641 1.979 1.269 3.215l-.438.515c-.832-.874-1.731-2.215-3.088-1.893.011.667.162.625.725 1.198l-.7.472c-.47-1.072-1.329-1.545-1.555-2.967-.343-2.158-.387-6.293 2.368-6.889z" stroke="#000"/><path d="m192.168 176.697c.895-.559 4.692-1.898 5.642-1.53.232.689-.097 1.486-.452 2.109-1.684 2.965-2.61 6.085-6.433 6.545l-.21-.15c.305-.1 1.27-.747 1.618-.944l-.053-.19c-.495.166-.28.198-.676.01.233-.239 1.458-.696 1.791-1.029.998-.998 1.607-3.232 2.073-4.58-1.614.353-2.457.516-3.895 1.311.033-.657.25-.809.656-1.325z" fill="#343c1e"/><path d="m192.168 176.697c.895-.559 4.692-1.898 5.642-1.53.232.689-.097 1.486-.452 2.109-1.684 2.965-2.61 6.085-6.433 6.545l-.21-.15c.305-.1 1.27-.747 1.618-.944l-.053-.19c-.495.166-.28.198-.676.01.233-.239 1.458-.696 1.791-1.029.998-.998 1.607-3.232 2.073-4.58-1.614.353-2.457.516-3.895 1.311.033-.657.25-.809.656-1.325z" stroke="#000"/><path d="m193.405 111.351c-.652 1.346-1.473 3.116-1.809 4.553-1.079 4.6-.385 5.738-4.088 8.897 2.123 1.466 1.277 1.425 1.48 3.559-.366.278-.346.255-.8.358-.139-.787-.021-1.136.123-1.916-.589-.7-1.186-1.346-1.805-2.02 1.8-2.632 3.509-2.687 3.726-6.55.15-2.657 1.048-4.784 2.568-6.957z" fill="#343c1e"/><path d="m193.405 111.351c-.652 1.346-1.473 3.116-1.809 4.553-1.079 4.6-.385 5.738-4.088 8.897 2.123 1.466 1.277 1.425 1.48 3.559-.366.278-.346.255-.8.358-.139-.787-.021-1.136.123-1.916-.589-.7-1.186-1.346-1.805-2.02 1.8-2.632 3.509-2.687 3.726-6.55.15-2.657 1.048-4.784 2.568-6.957z" stroke="#000"/><path d="m168.973 188.632c1.333-.274 3.799.026 4.98.834.935.639 2.339 2.351 3.088 2.724l.176.144c-.036.683.372.598.196 1.408-.46.342-.797.27-1.275-.04l.136-.051c.63-.067.403.069.795-.264l-.164-.315c-1.755-1.256-6.679-3.655-8.901-3.692-.061-.194-.045-.08-.009-.342.452.014.615.046 1.054-.098z" fill="#343c1e"/><path d="m168.973 188.632c1.333-.274 3.799.026 4.98.834.935.639 2.339 2.351 3.088 2.724l.176.144c-.036.683.372.598.196 1.408-.46.342-.797.27-1.275-.04l.136-.051c.63-.067.403.069.795-.264l-.164-.315c-1.755-1.256-6.679-3.655-8.901-3.692-.061-.194-.045-.08-.009-.342.452.014.615.046 1.054-.098z" stroke="#000"/><path d="m179.577 192.839c.08-.027.164-.065.247-.124.39-1.33-.351-2.471.355-3.959-.074.981-.212 2.987 0 3.872.645.179.824-.171.981-.118 1.424.481 3.681 1.815 5.224 1.692-1.393-.642-3.222-.993-4.381-1.657-.384-.208-.735-.226-1.168-.294l-.328.032c-.375-.903.417-5.594-.605-8.219l-.605.173c-.007 2.643.136 5.939.28 8.602zm0 0c-.01.003-.02.009-.03.012m.03-.012c.001.014.002.028.003.042l-.033-.03m0 0c-.646.185-1.175-.598-1.55-1.107l.093-.202z" fill="#343c1e"/><path d="m179.577 192.839c.08-.027.164-.065.247-.124.39-1.33-.351-2.471.355-3.959-.074.981-.212 2.987 0 3.872.645.179.824-.171.981-.118 1.424.481 3.681 1.815 5.224 1.692-1.393-.642-3.222-.993-4.381-1.657-.384-.208-.735-.226-1.168-.294l-.328.032c-.375-.903.417-5.594-.605-8.219l-.605.173c-.007 2.643.136 5.939.28 8.602zm0 0c-.01.003-.02.009-.03.012m.03-.012c.001.014.002.028.003.042l-.033-.03m0 0c-.646.185-1.175-.598-1.55-1.107l.093-.202z" stroke="#000"/><path d="m191.935 197.859c2.57.153 3.742.954 5.431 2.827l-1.464.887c-1.547-.934-3.004-2.009-4.354-3.213z" fill="#343c1e"/><path d="m191.935 197.859c2.57.153 3.742.954 5.431 2.827l-1.464.887c-1.547-.934-3.004-2.009-4.354-3.213z" stroke="#000"/><path d="m163.691 184.104c.633.277 1.692.759 2.327.891 1.928.399 2.804-.134 4.762.521l.727.487c-1.339.424-4.166.989-5.447.512-1.492-.555-1.693-1.13-2.369-2.411z" fill="#343c1e"/><path d="m163.691 184.104c.633.277 1.692.759 2.327.891 1.928.399 2.804-.134 4.762.521l.727.487c-1.339.424-4.166.989-5.447.512-1.492-.555-1.693-1.13-2.369-2.411z" stroke="#000"/><path d="m194.845 153.038c-.838 1.498-2.75 4.122-4.211 5.003l.195-.656c-.019-.244-.011-.311.049-.564-.704.722-1.804 2.105-2.681 2.186 1.858-2.341 4.207-3.712 6.196-6.73z" fill="#343c1e"/><path d="m194.845 153.038c-.838 1.498-2.75 4.122-4.211 5.003l.195-.656c-.019-.244-.011-.311.049-.564-.704.722-1.804 2.105-2.681 2.186 1.858-2.341 4.207-3.712 6.196-6.73z" stroke="#000"/><path d="m188.989 128.361c1.185 1.68-.324 4.585.777 6.302l-.555.087c-.2.281-.238.325-.399.63-.908-1.605.243-5.329-.624-6.661.454-.103.434-.08.801-.358z" fill="#343c1e"/><path d="m188.989 128.361c1.185 1.68-.324 4.585.777 6.302l-.555.087c-.2.281-.238.325-.399.63-.908-1.605.243-5.329-.624-6.661.454-.103.434-.08.801-.358z" stroke="#000"/><path d="m218.804 190.893c.906 1.775 1.542 3.433 2.211 5.292l-.785.792c-.75-1.649-1.257-3.382-2.114-5.194.191-.376.409-.579.688-.89z" fill="#343c1e"/><path d="m218.804 190.893c.906 1.775 1.542 3.433 2.211 5.292l-.785.792c-.75-1.649-1.257-3.382-2.114-5.194.191-.376.409-.579.688-.89z" stroke="#000"/><path d="m204.106 166.805c.87.339 5.79 3.332 6.946 3.987l-.08.426c-.139.087-.342.225-.481.293-2.291-1.157-4.813-2.637-6.385-4.706z" fill="#343c1e"/><path d="m204.106 166.805c.87.339 5.79 3.332 6.946 3.987l-.08.426c-.139.087-.342.225-.481.293-2.291-1.157-4.813-2.637-6.385-4.706z" stroke="#000"/><path d="m181.752 178.388c1.035-2.01 2.709-3.691 3.957-.675l-.32.555c-.99-1.228-1.779-.729-2.802.159z" fill="#343c1e"/><path d="m181.752 178.388c1.035-2.01 2.709-3.691 3.957-.675l-.32.555c-.99-1.228-1.779-.729-2.802.159z" stroke="#000"/><path d="m187.506 203.722c-2.025 1.518-4.015 1.561-6.255 2.338-.377.06-.558.031-.829-.199 1.152-.522 1.09-.212 2.026-.478l-.122-.185c-.62.028-.817.048-1.419-.045l-.069-.259c1.293-.028 1.95-.012 3.229-.292.844-.185 2.987-1.139 3.46-1.081z" fill="#343c1e"/><path d="m187.506 203.722c-2.025 1.518-4.015 1.561-6.255 2.338-.377.06-.558.031-.829-.199 1.152-.522 1.09-.212 2.026-.478l-.122-.185c-.62.028-.817.048-1.419-.045l-.069-.259c1.293-.028 1.95-.012 3.229-.292.844-.185 2.987-1.139 3.46-1.081z" stroke="#000"/><path d="m196.353 148.916c.643.049.7-.068 1.028.276-.827 1.294-1.672 2.576-2.537 3.846l-.451-.76c.247-.746 1.481-2.613 1.96-3.362z" fill="#343c1e"/><path d="m196.353 148.916c.643.049.7-.068 1.028.276-.827 1.294-1.672 2.576-2.537 3.846l-.451-.76c.247-.746 1.481-2.613 1.96-3.362z" stroke="#000"/><path d="m176.324 173.758c.693 1.306 1.122 2.38 1.732 3.679-.71-.227-.423-.655-1.081-.808l-.234.565c-.196-.811-.761-1.975-1.133-2.74.348-.166.477-.393.716-.696z" fill="#343c1e"/><path d="m176.324 173.758c.693 1.306 1.122 2.38 1.732 3.679-.71-.227-.423-.655-1.081-.808l-.234.565c-.196-.811-.761-1.975-1.133-2.74.348-.166.477-.393.716-.696z" stroke="#000"/><path d="m192.23 176.924c-.407.517-.625.668-.657 1.325-.555.611-.842.896-1.267 1.625-.365-.151-.363-.213-.656-.501.593-1.318 1.231-2.024 2.517-2.676z" fill="#343c1e"/><path d="m192.23 176.924c-.407.517-.625.668-.657 1.325-.555.611-.842.896-1.267 1.625-.365-.151-.363-.213-.656-.501.593-1.318 1.231-2.024 2.517-2.676z" stroke="#000"/><path d="m184.783 179.649c-1.107.97-1.163 1.796-2.091 2.705-.624-.85.875-2.724 1.637-3.266z" fill="#343c1e"/><path d="m184.783 179.649c-1.107.97-1.163 1.796-2.091 2.705-.624-.85.875-2.724 1.637-3.266z" stroke="#000"/><path d="m174.216 182.238c.553.491 1.046.822 1.298 1.497l-.075.308c-.822.104-1.459-.71-1.923-1.333z" fill="#343c1e"/><path d="m174.216 182.238c.553.491 1.046.822 1.298 1.497l-.075.308c-.822.104-1.459-.71-1.923-1.333z" stroke="#000"/><path d="m190.377 199.922c-.008.736.115 2.545-.378 3.015-.382-.051-.229.033-.476-.258.138-1.302-.451-2.232.854-2.757z" fill="#343c1e"/><path d="m190.377 199.922c-.008.736.115 2.545-.378 3.015-.382-.051-.229.033-.476-.258.138-1.302-.451-2.232.854-2.757z" stroke="#000"/><path d="m214.385 122.07c.342.759 1.175 2.24 1.28 2.884l-.161.113c-.487-.449-1.29-1.505-1.74-2.064.196-.388.365-.584.621-.933z" fill="#343c1e"/><path d="m214.385 122.07c.342.759 1.175 2.24 1.28 2.884l-.161.113c-.487-.449-1.29-1.505-1.74-2.064.196-.388.365-.584.621-.933z" stroke="#000"/><path d="m204.497 129.031c-.084.863-.329.904-.378 1.213-.537.414-1.66.721-2.28.369.626-.648 1.63-.652 2.658-1.582z" fill="#343c1e"/><path d="m204.497 129.031c-.084.863-.329.904-.378 1.213-.537.414-1.66.721-2.28.369.626-.648 1.63-.652 2.658-1.582z" stroke="#000"/><path d="m173.578 147.914c.433.481.551 1.082.754 1.715-.22.204-.586.565-.806.741-.124-.858-.263-1.49-.13-2.349z" fill="#343c1e"/><path d="m173.578 147.914c.433.481.551 1.082.754 1.715-.22.204-.586.565-.806.741-.124-.858-.263-1.49-.13-2.349z" stroke="#000"/><path d="m212.422 124.236c.604.335 1.053.505 1.446 1.064l-.058.223c-.618.161-1.006-.214-1.622-.411-.085-.606-.137-.319.234-.876z" fill="#343c1e"/><path d="m212.422 124.236c.604.335 1.053.505 1.446 1.064l-.058.223c-.618.161-1.006-.214-1.622-.411-.085-.606-.137-.319.234-.876z" stroke="#000"/><path d="m199.312 194.488.033.189c-.586.394-.696.417-1.375.656-.238-.626-.562-.503-1.193-.604.82-.136 1.719-.338 2.535-.241z" fill="#343c1e"/><path d="m199.312 194.488.033.189c-.586.394-.696.417-1.375.656-.238-.626-.562-.503-1.193-.604.82-.136 1.719-.338 2.535-.241z" stroke="#000"/></svg>