<svg width="887" height="363" viewBox="0 0 887 363" fill="none" xmlns="http://www.w3.org/2000/svg">
<path d="M755.865 220.886C765.513 217.623 775.264 223.918 780.527 231.747C779.128 231.15 779.173 230.902 777.904 231.113C777.308 231.943 777.256 232.058 777.049 233.06C772.169 225.473 763.879 220.523 754.859 224.411C753.79 224.981 754.107 224.988 752.984 224.979L752.787 224.32C753.49 222.341 754.031 221.886 755.865 220.886Z" fill="#343C1E"/>
<path d="M755.865 220.885C756.151 222.159 755.469 223.015 754.859 224.409C753.79 224.98 754.107 224.987 752.984 224.978L752.787 224.319C753.49 222.34 754.031 221.885 755.865 220.885Z" fill="#343C1E"/>
<path d="M236.257 87.6237C238.527 85.8666 240.799 83.6652 243 81.7561C251.704 74.2037 269.084 62.9665 281.238 66.7615C288.449 67.6655 294.171 72.84 293.284 80.607C292.263 89.5451 283.261 91.9938 275.793 93.1271C271.99 93.7043 253.449 94.3535 250.692 92.4213C249.239 92.4192 248.529 92.2827 247.502 93.5774C226.899 119.536 219.425 155.478 209.513 186.186C199.389 217.553 181.692 251.405 144.295 251.762C130.486 251.755 118.694 248.768 109.81 237.559C96.7595 221.094 102.542 192.312 126.507 191.696C135.25 191.471 144.39 196.212 144.455 206.021C144.47 208.277 143.61 210.523 141.965 212.11C134.702 217.195 134.998 209.78 133.562 205.561C132.09 201.237 129.593 199.716 125.549 199.387C115.482 198.77 110.096 209.011 109.544 217.739C109.043 225.096 111.529 232.345 116.441 237.844C128.734 251.621 149.687 250.761 162.365 238.103C182.712 217.787 187.58 185.758 196.537 159.453C200.103 148.86 203.623 139.021 208.199 129.118C212.928 118.912 218.793 109.274 225.683 100.384C228.268 97.0849 232.035 93.366 234.266 90.274C211.924 87.8426 192.877 84.2996 170.486 89.9937C148.618 95.5547 133.307 107.286 130.175 130.842C128.092 146.509 137.417 167.739 154.791 169.584C155.304 169.638 155.819 169.681 156.334 169.713C157.108 170.611 157.555 170.772 157.545 171.712C156.736 172.18 156.601 172.237 155.689 172.44C128.423 173.184 112.105 153.037 115.159 126.509C117.798 103.585 140.194 88.2084 161.51 84.6492C185.999 80.5601 211.872 84.341 236.257 87.6237ZM250.913 90.1847C260.852 91.2756 276.205 92.2817 284.912 86.6355C286.916 85.3357 289.035 82.8505 289.28 80.3598C289.943 73.6258 286.46 71.3323 280.486 70.3211C269.574 70.8613 256.65 81.1097 250.514 89.6634L250.913 90.1847Z" fill="#343C1E"/>
<path d="M281.238 66.7617C288.449 67.6657 294.172 72.8402 293.284 80.6072C292.263 89.5453 283.261 91.994 275.793 93.1273C271.99 93.7045 253.449 94.3537 250.692 92.4215C251.02 92.3305 250.871 92.377 251.156 92.0795L250.913 90.1849C260.852 91.2758 276.205 92.2819 284.912 86.6357C286.916 85.3359 289.035 82.8507 289.28 80.36C289.943 73.626 286.46 71.3325 280.486 70.3213C282.216 68.7456 286.537 71.1791 287.903 72.6444C289.4 74.4656 290.202 77.42 290.166 79.707C290.059 86.3564 283.047 87.0874 279.625 90.5125L279.398 90.4559L279.107 90.6711L279.071 91.452C285.992 92.4039 293.739 84.7718 292.652 77.3945C291.413 68.9911 285.478 70.2571 281.238 66.7617Z" fill="#343C1E"/>
<path d="M339.88 139.334L340.38 139.522C340.094 145.403 340.174 151.994 340.039 157.956C339.875 165.185 339.555 174.175 340.215 181.312C347.273 173.867 356.392 170.3 366.095 175.472C372.023 178.671 376.441 184.091 378.378 190.545C380.788 198.516 380.075 211.003 375.834 218.328C371.308 226.145 366.628 229.52 358.256 232.041C349.09 233.843 342.706 232.721 336.162 225.802C330.515 228.579 329.983 231.09 322.758 232.903C323.397 218.907 322.805 203.266 322.727 189.111C322.657 176.46 323.126 162.079 322.568 149.615C320.61 148.839 317.526 148.352 316.783 146.406C317.607 145.25 336.941 140.239 339.88 139.334ZM340.54 186.28C339.554 195.579 340.567 206.69 340.251 216.169C340.013 223.319 345.954 230.245 353.801 227.78C359.056 224.343 360.956 218.5 361.656 212.468C362.791 202.697 362.715 180.543 347.985 181.052C344.343 182.118 342.876 183.254 340.54 186.28Z" fill="#343C1E"/>
<path d="M593.747 232.874C591.197 229.249 588.374 221.711 586.523 217.378C583.042 209.316 579.615 201.23 576.244 193.121C574.6 189.064 573.225 185.268 571.195 181.366C569.709 178.514 564.942 177.113 565.277 174.752C566.521 173.865 591.114 173.812 593.796 174.396C594.595 176.647 590.525 177.651 589.646 181.048C589.777 183.539 601.958 212.25 603.595 213.92C605.515 214.28 605.391 214.42 606.315 216.204L600.469 232.185C598.183 238.57 595.078 247.646 591.7 253.526C599.566 255.881 606.949 259.045 614.849 261.693C658.52 276.333 713.225 300.651 758.437 279.47C774.847 271.781 785.904 250.265 777.05 233.059C777.256 232.057 777.308 231.942 777.904 231.112C779.173 230.902 779.128 231.149 780.527 231.746C792.198 250.32 781.999 278.065 763.438 288.226C716.62 313.855 659.182 282.959 614.746 265.447C606.363 262.144 598.197 259.869 590.239 256.765C582.935 270.213 570.092 281.316 555.288 285.677C548.267 287.742 540.88 288.226 533.652 287.095C526.783 286.148 518.755 282.114 515.901 275.461C514.171 271.333 514.122 266.691 515.767 262.527C518.545 255.647 524.632 251.772 531.16 249.041C532.149 249.919 533.083 250.658 534.128 251.474C525.331 255.072 514.839 262.818 519.313 274.363C521.623 280.315 529.257 283.612 535.307 284.667C540.515 285.295 545.799 284.855 550.831 283.374C564.987 279.176 575.765 267.109 582.58 254.468C579.305 253.755 576.045 252.965 572.808 252.099C572.391 250.033 571.781 250.166 573.666 248.846C577.478 249.718 580.66 250.474 584.41 251.608C588.126 246.441 591.152 238.862 593.747 232.874Z" fill="#343C1E"/>
<path d="M533.652 287.095C526.783 286.148 518.755 282.115 515.901 275.461C514.171 271.333 514.122 266.691 515.767 262.528C518.545 255.648 524.632 251.772 531.16 249.041C532.149 249.92 533.083 250.658 534.128 251.474C525.331 255.073 514.839 262.818 519.313 274.364C521.623 280.315 529.257 283.612 535.307 284.667C530.143 286.613 522.347 278.889 518.531 276.538C518.527 276.537 517.497 276.557 517.376 276.56C517.218 280.87 530.102 286.099 534.179 286.54L534.352 286.784L533.652 287.095Z" fill="#343C1E"/>
<path d="M256.027 173.183C265.157 172.357 270.557 175.992 274.691 183.869C275.165 183.154 275.662 182.454 276.179 181.769C279.38 177.601 284.204 173.935 289.531 173.424C297.087 172.3 307.799 176.643 308.981 185.193C310.67 197.411 308.695 211.6 309.815 224.066C310.177 228.098 313.41 227.212 315.536 228.884C315.917 229.734 316.31 230.924 315.586 231.631C312.12 231.745 288.876 232.114 287.652 231.17C287.675 228.479 290.508 228.131 292.523 227.653C293.48 219.404 292.741 210.51 292.939 202.19C293.083 196.128 293.161 190.874 291.021 185.127C284.841 179.602 280.359 181.893 275.263 187.108C275.235 199.189 275.356 211.621 275.509 223.716C275.57 228.516 278.661 227.073 281.254 229.391C281.673 230.551 281.622 230.046 281.34 231.35C280.236 232.381 274.424 231.98 272.562 231.954C269.777 231.96 254.461 232.5 253.393 230.952C253.916 229.245 258.535 227.377 258.74 224.995C258.905 223.079 258.737 220.895 258.745 218.931L258.875 201.674C258.877 196.365 259.603 187.51 255.624 183.653C254.09 182.188 252.02 181.421 249.903 181.533C245.953 181.704 243.699 184.141 241.244 186.783C239.983 198.223 241.093 212.702 240.967 224.37C240.924 228.349 247.239 227.999 247.316 231.091C245.584 232.42 220.415 232.319 218.787 230.774L219.025 229.998C220.123 228.755 222.117 228.028 223.672 227.317C224.466 223.07 224.498 218.71 224.412 214.398C224.197 203.673 224.892 192.627 223.916 181.957C222.502 181.655 221.194 181.452 219.918 180.757C219.119 179.725 219.24 180.181 219.333 179.051C221.184 176.414 236.504 174.107 240.692 173.171C240.7 175.848 240.867 179.995 241.355 182.564C246.233 177.403 248.948 174.726 256.027 173.183Z" fill="#343C1E"/>
<path d="M648.5 173.797C664.593 171.093 679.842 181.921 682.596 198.011C685.353 214.101 674.579 229.389 658.503 232.199C642.351 235.022 626.981 224.182 624.21 208.017C621.442 191.852 632.331 176.513 648.5 173.797ZM655.19 229.483C666.885 226.585 666.134 198.023 663.449 189.05C661.663 183.082 659.454 177.12 652.178 176.908C648.217 178.555 646.208 180.948 644.55 184.921C640.176 195.418 639 228.257 655.19 229.483Z" fill="#343C1E"/>
<path d="M482.874 173.237C493.686 172.634 506.774 176.079 509.056 188.523C509.711 192.095 509.507 195.937 509.48 199.568L509.362 213.736C509.307 220.14 508.259 227.186 516.98 223.573L517.435 223.925C517.176 230.4 506.65 234.383 501.121 232.514C496.309 230.887 494.476 228.791 492.111 224.635C487.348 230.525 480.63 233.639 473.023 233.083C468.004 232.716 465.719 231.172 462.568 227.556C457.084 219.378 459.69 209.18 468.163 204.247C475.852 199.77 484.063 199.797 492.128 196.551C493.042 191.407 493.049 182.618 488.44 179.274C486.472 177.844 483.746 176.831 481.264 177.276C474.139 178.554 479.465 188.357 475.697 192.531C472.119 196.723 463.213 194.904 462.923 189.088C462.368 177.848 473.574 173.79 482.874 173.237ZM479.31 222.436C485.086 226.387 491.07 224.423 492.173 217.561C492.501 215.516 492.528 201.818 492.046 200.368C486.968 202.098 480.326 203.88 477.969 209.111C476.107 213.242 475.832 219.106 479.31 222.436Z" fill="#343C1E"/>
<path d="M707.221 173.2L707.7 173.213C708.592 174.093 708.758 180.732 708.878 182.459C716.406 174.213 725.692 169.517 736.508 176.397C744.367 181.397 743.116 191.705 743.288 199.627C743.478 208.234 741.865 218.107 743.526 226.558C743.767 227.676 747.562 228.247 748.772 229.579C749.041 230.589 749.275 230.724 748.92 231.519C746.218 231.954 723.248 232.077 721.632 231.444C721.273 229.284 724.927 228.064 726.064 226.323C727.484 224.152 727.012 192.48 726.068 188.172C723.993 182.875 722.156 182.733 716.885 181.57C712.963 182.761 711.119 183.895 708.475 187.086C707.817 198.936 708.217 213.216 708.227 225.239C708.227 228.216 714.259 228.32 714.221 231.294L713.838 231.657L697.721 231.729C695.332 231.749 688.301 232.266 686.764 230.76L686.995 230.021C688.046 228.793 689.911 228.055 691.4 227.326C692.003 221.334 691.81 212.698 691.806 206.45C691.803 198.758 692.034 189.453 691.369 181.908C689.673 181.435 686.66 181.245 686.533 179.433C688.311 176.847 703.529 173.896 707.221 173.2Z" fill="#343C1E"/>
<path d="M539.846 173.172C541.759 173.034 545.058 173.009 546.854 173.403C552.986 174.749 554.843 176.282 561.103 174.26C561.389 177.149 562.178 189.579 560.675 191.48C559.28 191.273 558.135 188.577 557.622 187.315C554.744 180.202 545.079 171.747 538.061 179.151C536.744 180.546 536.051 182.415 536.141 184.331C536.434 191.886 554.482 197.232 559.838 202.738C566.869 209.969 567.138 218.809 560.893 226.418C556.929 231.25 549.58 232.661 543.893 232.85C538.154 232.698 534.569 231.752 529.334 229.545C527.879 230.299 526.38 230.89 524.746 230.555C522.916 229.561 522.826 227.081 523.095 225.233C523.629 221.579 522.616 214.777 523.936 211.538L524.456 211.49C525.411 212.203 528.413 219.95 531.06 222.997C536.234 228.96 547.14 233.69 551.342 223.948C551.848 222.77 551.583 220.242 551.486 218.746C545.616 208.61 525.321 208.441 523.419 194.164C521.84 182.315 528.506 175.036 539.846 173.172Z" fill="#343C1E"/>
<path d="M437.007 155.311L437.607 155.724C437.917 157.115 438.11 171.155 438.213 173.919C443.339 174.016 448.24 174.128 453.362 173.937C453.31 175.426 453.352 177.158 453.348 178.669L438.437 178.559C438.151 185.89 437.014 213.676 439.213 219.146C439.912 220.892 441.508 222.534 443.266 223.227C448.178 225.164 450.811 220.708 454.734 219.056L455.282 219.306C455.864 222.823 452.276 226.415 449.943 228.604C440.653 235.984 424.776 234.801 422.275 221.176C421.237 215.523 421.546 209.794 421.566 204.07C421.655 195.652 421.653 187.234 421.559 178.816C419.714 178.759 414.775 179.031 413.908 177.383C415.166 174.254 420.66 174.521 424.844 171.018C431.95 165.067 432.464 162.143 437.007 155.311Z" fill="#343C1E"/>
<path d="M405.831 173.217C406.905 173.445 406.368 179.288 406.36 180.666L406.138 208.448C406.082 213.607 405.383 219.949 406.698 224.846C407.502 227.84 412.927 228.856 412.771 231.022C411.343 232.252 387.994 231.973 384.995 231.739C384.436 231.753 384.11 231.584 383.589 231.392L383.284 230.672C384.011 228.046 386.952 229.092 388.623 227.122C390.126 222.376 389.585 187.816 388.814 181.852C386.918 181.745 384.224 181.829 383.494 179.732C384.855 176.778 402.23 173.725 405.831 173.217Z" fill="#343C1E"/>
<path d="M394.255 144.168C399.638 143.727 404.275 144.733 406.654 150.195C407.819 152.93 407.834 156.017 406.696 158.763C405.46 161.698 402.86 163.936 399.945 165.119C398.019 165.411 395.811 165.452 393.951 164.825C391.378 163.959 389.271 162.077 388.122 159.617C384.994 152.975 387.918 147.121 394.255 144.168Z" fill="#343C1E"/>
<path d="M614.625 179.381C612.057 178.083 609.199 177.829 608.348 175.903C608.913 173.718 612.619 173.973 614.542 174.006C618.647 174.076 622.987 173.899 627.057 174.394L627.426 174.787C627.037 176.461 621.47 180.101 620.143 182.962C615.176 193.661 610.44 205.16 606.314 216.205C605.391 214.421 605.515 214.282 603.595 213.922C606.49 209.193 614.383 184.856 614.625 179.381Z" fill="#343C1E"/>
<path d="M531.16 249.041C544.22 244.589 560.251 246.084 573.666 248.846C571.781 250.166 572.391 250.033 572.808 252.098C560.196 249.215 546.602 247.077 534.128 251.474C533.083 250.658 532.149 249.919 531.16 249.041Z" fill="#343C1E"/>
<path d="M156.335 169.713C164.378 169.848 167.635 168.154 173.981 163.332C172.359 167.164 171.316 168.702 167.12 170.561C164.299 171.811 158.73 172.503 155.689 172.439C156.601 172.236 156.736 172.18 157.546 171.712C157.556 170.771 157.109 170.61 156.335 169.713Z" fill="#343C1E"/>
</svg>
